<svg xmlns="http://www.w3.org/2000/svg" viewBox="0 0 1200 675" role="img" aria-labelledby="title desc">
  <title id="title">90일 회고 발표 표지 예시</title>
  <desc id="desc">씨앗에서 잎까지 성장한 식물과 나의 90일 문구가 있는 회고 슬라이드</desc>
  <rect width="1200" height="675" fill="#fbfaf5"/>
  <rect x="72" y="58" width="1056" height="559" rx="38" fill="#ffffff" stroke="#dbe4f0" stroke-width="4"/>
  <text x="812" y="224" text-anchor="middle" font-family="Malgun Gothic, Segoe UI, sans-serif" font-size="64" font-weight="800" fill="#172033">나의 90일</text>
  <text x="812" y="284" text-anchor="middle" font-family="Malgun Gothic, Segoe UI, sans-serif" font-size="30" fill="#667085">Day 1부터 Day 90까지</text>
  <text x="812" y="370" text-anchor="middle" font-family="Malgun Gothic, Segoe UI, sans-serif" font-size="38" font-weight="800" fill="#0f766e">그리고, 이제 시작입니다</text>
  <g transform="translate(170 452)" stroke="#0f766e" stroke-width="8" stroke-linecap="round" fill="none">
    <path d="M0 0 C75 -40 144 -56 210 -47 C286 -36 347 -75 424 -137" stroke="#8fc2aa"/>
  </g>
  <g fill="#7fb596" stroke="#4f8a67" stroke-width="4">
    <ellipse cx="186" cy="456" rx="38" ry="18" fill="#d6ad7c" stroke="none"/>
    <path d="M336 413 C318 381 326 349 359 326 C376 361 367 393 336 413Z"/>
    <path d="M505 369 C475 319 486 268 537 233 C561 286 551 331 505 369Z"/>
    <path d="M525 370 C572 330 620 332 665 374 C612 407 565 404 525 370Z" fill="#f2a391" stroke="#d88978"/>
    <path d="M726 279 C675 207 686 128 760 82 C794 160 781 226 726 279Z"/>
    <path d="M744 280 C820 205 902 214 966 282 C881 334 808 329 744 280Z" fill="#8fc2aa"/>
  </g>
  <g font-family="Malgun Gothic, Segoe UI, sans-serif" font-size="22" fill="#475569" text-anchor="middle">
    <text x="186" y="520">씨앗</text><text x="336" y="520">새싹</text><text x="525" y="520">줄기</text><text x="760" y="520">잎</text>
  </g>
</svg>